<svg width="32" height="32" viewBox="0 0 32 32" fill="none" xmlns="http://www.w3.org/2000/svg">
<path d="M23.25 21.3333V21.644L23.4697 21.8637L25.9167 24.3107V24.5833H6.08337V24.3107L8.53037 21.8637L8.75004 21.644V21.3333V14.6667C8.75004 10.8216 10.7617 7.77805 14.173 6.9698L14.75 6.83307V6.24V5.33334C14.75 4.64088 15.3076 4.08334 16 4.08334C16.6925 4.08334 17.25 4.64088 17.25 5.33334V6.24V6.83259L17.8266 6.96966C21.2255 7.77781 23.25 10.8356 23.25 14.6667V21.3333ZM17.7624 27.4167C17.4685 28.1003 16.7869 28.5833 16 28.5833C15.2047 28.5833 14.5268 28.1012 14.2356 27.4167H17.7624Z" stroke="white" stroke-width="1.5"/>
</svg>
