<svg width="29" height="29" viewBox="0 0 29 29" fill="none" xmlns="http://www.w3.org/2000/svg">
<path fill-rule="evenodd" clip-rule="evenodd" d="M3.045 9.4528C2.41667 10.5971 2.41667 11.9806 2.41667 14.7453V16.5844C2.41667 21.2969 2.41667 23.6543 3.83283 25.1188C5.249 26.5833 7.52671 26.5833 12.0833 26.5833H16.9167C21.4733 26.5833 23.7522 26.5833 25.1672 25.1188C26.5821 23.6543 26.5833 21.2981 26.5833 16.5844V14.7465C26.5833 11.9806 26.5833 10.5983 25.955 9.4528C25.3291 8.30609 24.1824 7.59559 21.8902 6.17217L19.4735 4.67263C17.0508 3.16826 15.8388 2.41667 14.5 2.41667C13.1612 2.41667 11.9504 3.16826 9.5265 4.67263L7.10983 6.17217C4.81763 7.59559 3.67213 8.30609 3.045 9.4528ZM13.5938 21.75C13.5938 21.9904 13.6892 22.2209 13.8592 22.3908C14.0291 22.5608 14.2596 22.6563 14.5 22.6563C14.7404 22.6563 14.9709 22.5608 15.1408 22.3908C15.3108 22.2209 15.4063 21.9904 15.4063 21.75V18.125C15.4063 17.8847 15.3108 17.6541 15.1408 17.4842C14.9709 17.3142 14.7404 17.2188 14.5 17.2188C14.2596 17.2188 14.0291 17.3142 13.8592 17.4842C13.6892 17.6541 13.5938 17.8847 13.5938 18.125V21.75Z" fill="white"/>
</svg>
