<svg width="29" height="29" viewBox="0 0 29 29" fill="none" xmlns="http://www.w3.org/2000/svg">
<path d="M2.41663 14.7465C2.41663 11.9806 2.41663 10.5983 3.04496 9.4528C3.67088 8.30609 4.81758 7.59559 7.10979 6.17217L9.52646 4.67263C11.9492 3.16826 13.1611 2.41667 14.5 2.41667C15.8388 2.41667 17.0495 3.16826 19.4735 4.67263L21.8901 6.17217C24.1823 7.59559 25.329 8.30609 25.9562 9.4528C26.5833 10.5995 26.5833 11.9806 26.5833 14.7453V16.5844C26.5833 21.2969 26.5833 23.6543 25.1671 25.1188C23.751 26.5833 21.4733 26.5833 16.9166 26.5833H12.0833C7.52667 26.5833 5.24775 26.5833 3.83279 25.1188C2.41783 23.6543 2.41663 21.2981 2.41663 16.5844V14.7465Z" stroke="white" stroke-width="1.8125"/>
<path d="M14.5 18.125V21.75" stroke="white" stroke-width="1.8125" stroke-linecap="round"/>
</svg>
