<svg width="16" height="16" viewBox="0 0 16 16" fill="none" xmlns="http://www.w3.org/2000/svg">
<path d="M7.5 12.6667C7.5 12.5341 7.55268 12.4069 7.64645 12.3132C7.74022 12.2194 7.86739 12.1667 8 12.1667H12C12.0442 12.1667 12.0866 12.1491 12.1179 12.1179C12.1491 12.0866 12.1667 12.0442 12.1667 12V4.00004C12.1667 3.95584 12.1491 3.91345 12.1179 3.88219C12.0866 3.85093 12.0442 3.83337 12 3.83337H8C7.86739 3.83337 7.74022 3.7807 7.64645 3.68693C7.55268 3.59316 7.5 3.46598 7.5 3.33337C7.5 3.20077 7.55268 3.07359 7.64645 2.97982C7.74022 2.88605 7.86739 2.83337 8 2.83337H12C12.644 2.83337 13.1667 3.35604 13.1667 4.00004V12C13.1667 12.3095 13.0438 12.6062 12.825 12.825C12.6062 13.0438 12.3094 13.1667 12 13.1667H8C7.86739 13.1667 7.74022 13.114 7.64645 13.0203C7.55268 12.9265 7.5 12.7993 7.5 12.6667Z" fill="white"/>
<path d="M10.4081 8.7433C10.4081 8.92011 10.3378 9.08968 10.2128 9.21471C10.0878 9.33973 9.91822 9.40997 9.74141 9.40997H6.50407C6.48852 9.64686 6.46941 9.88375 6.44674 10.1206L6.42674 10.324C6.41929 10.4006 6.39347 10.4743 6.35146 10.5388C6.30945 10.6034 6.2525 10.6568 6.18543 10.6946C6.11837 10.7324 6.04317 10.7535 5.96622 10.7561C5.88927 10.7586 5.81283 10.7426 5.74341 10.7093C4.52439 10.1258 3.42106 9.32646 2.48674 8.34997L2.46674 8.3293C2.38078 8.23989 2.33276 8.12067 2.33276 7.99664C2.33276 7.8726 2.38078 7.75338 2.46674 7.66397L2.48674 7.6433C3.42106 6.66681 4.52439 5.86749 5.74341 5.28397C5.81283 5.25069 5.88927 5.23465 5.96622 5.2372C6.04317 5.23976 6.11837 5.26084 6.18543 5.29866C6.2525 5.33648 6.30945 5.38992 6.35146 5.45444C6.39347 5.51897 6.41929 5.59267 6.42674 5.6693L6.44674 5.87264C6.46941 6.10908 6.48852 6.34597 6.50407 6.5833H9.74141C9.91822 6.5833 10.0878 6.65354 10.2128 6.77857C10.3378 6.90359 10.4081 7.07316 10.4081 7.24997V8.7433Z" fill="white"/>
</svg>
