<svg width="26" height="26" viewBox="0 0 26 26" fill="none" xmlns="http://www.w3.org/2000/svg">
<path fill-rule="evenodd" clip-rule="evenodd" d="M2.52394 7.31273C2.52416 7.20595 2.54544 7.10025 2.58654 7.0017C2.62765 6.90314 2.68778 6.81365 2.76349 6.73835C2.83921 6.66305 2.92902 6.60341 3.02781 6.56285C3.12659 6.52229 3.23239 6.5016 3.33918 6.50196L22.6144 6.54888C23.0633 6.5499 23.4273 6.91552 23.4273 7.36402V18.7376C23.4273 19.1867 23.063 19.5542 22.614 19.5582L18.2813 19.5978C18.1732 19.599 18.07 19.6426 17.994 19.7194C17.918 19.7962 17.8753 19.8998 17.8752 20.0078V22.2424C17.8752 22.4667 17.734 22.5347 17.5588 22.3935L13.9727 19.5028C13.4489 19.0807 13.4537 18.4012 13.9827 17.9859L17.5551 15.1812C17.7318 15.0423 17.8752 15.1116 17.8752 15.337V17.5187C17.8751 17.5721 17.8855 17.625 17.9058 17.6743C17.9261 17.7236 17.9559 17.7685 17.9936 17.8063C18.0312 17.8441 18.076 17.8741 18.1252 17.8947C18.1745 17.9152 18.2273 17.9258 18.2806 17.9259H21.3969C21.5045 17.9257 21.6078 17.883 21.6841 17.8071C21.7604 17.7312 21.8037 17.6282 21.8045 17.5206L21.8488 9.08967C21.8494 8.98313 21.8289 8.87754 21.7886 8.77892C21.7483 8.68031 21.6889 8.59061 21.6139 8.51496C21.5389 8.43931 21.4497 8.37919 21.3514 8.33803C21.2532 8.29688 21.1478 8.27551 21.0412 8.27514L4.91238 8.22903C4.46398 8.22771 4.09907 8.59059 4.09734 9.03899L4.06586 17.1136C4.06538 17.2202 4.08595 17.3257 4.12641 17.4243C4.16686 17.5229 4.2264 17.6125 4.30159 17.688C4.37678 17.7634 4.46614 17.8233 4.56455 17.8642C4.66296 17.905 4.76846 17.926 4.87501 17.9259H10.969C11.0766 17.926 11.1797 17.9688 11.2559 18.0448C11.332 18.1208 11.3749 18.224 11.3751 18.3316V19.1961C11.3752 19.2493 11.3646 19.302 11.3442 19.3511C11.3238 19.4003 11.2938 19.4449 11.256 19.4824C11.2182 19.5199 11.1734 19.5495 11.1241 19.5696C11.0748 19.5897 11.022 19.5998 10.9688 19.5994L3.30059 19.5556C2.85198 19.5529 2.48941 19.1865 2.49073 18.7382L2.52384 7.31283L2.52394 7.31273Z" fill="#70CCE2"/>
</svg>
