<svg width="29" height="29" viewBox="0 0 29 29" fill="none" xmlns="http://www.w3.org/2000/svg">
<path d="M16.3125 3.625C19.0365 3.625 21.6489 4.7071 23.575 6.63326C25.5012 8.55941 26.5833 11.1718 26.5833 13.8958C26.5833 16.6198 25.5012 19.2323 23.575 21.1584C21.6489 23.0846 19.0365 24.1667 16.3125 24.1667H15.7083V25.3629C15.7083 25.5233 15.6767 25.6821 15.6153 25.8302C15.5539 25.9784 15.4639 26.113 15.3504 26.2263C15.237 26.3397 15.1023 26.4295 14.9541 26.4908C14.8059 26.552 14.647 26.5835 14.4867 26.5833C11.5142 26.5809 8.503 25.5889 6.21804 23.5577C3.91254 21.5059 2.41904 18.4573 2.41663 14.5109V13.8958C2.41663 11.1718 3.49873 8.55941 5.42488 6.63326C7.35104 4.7071 9.96347 3.625 12.6875 3.625H16.3125ZM16.3125 6.04167H12.6875C10.6044 6.04167 8.60667 6.86916 7.13372 8.3421C5.66078 9.81504 4.83329 11.8128 4.83329 13.8958L4.8345 14.6994C4.88283 17.8918 6.09238 20.2118 7.82513 21.7512C9.32104 23.0828 11.258 23.8767 13.2916 24.1002V22.9704C13.2916 22.2962 13.8378 21.75 14.512 21.75H16.3125C18.3955 21.75 20.3933 20.9225 21.8662 19.4496C23.3391 17.9766 24.1666 15.9789 24.1666 13.8958C24.1666 11.8128 23.3391 9.81504 21.8662 8.3421C20.3933 6.86916 18.3955 6.04167 16.3125 6.04167ZM10.2708 12.0833C10.7515 12.0833 11.2125 12.2743 11.5524 12.6142C11.8923 12.9541 12.0833 13.4151 12.0833 13.8958C12.0833 14.3765 11.8923 14.8376 11.5524 15.1775C11.2125 15.5174 10.7515 15.7083 10.2708 15.7083C9.79009 15.7083 9.32907 15.5174 8.98916 15.1775C8.64925 14.8376 8.45829 14.3765 8.45829 13.8958C8.45829 13.4151 8.64925 12.9541 8.98916 12.6142C9.32907 12.2743 9.79009 12.0833 10.2708 12.0833ZM18.7291 12.0833C19.2098 12.0833 19.6708 12.2743 20.0108 12.6142C20.3507 12.9541 20.5416 13.4151 20.5416 13.8958C20.5416 14.3765 20.3507 14.8376 20.0108 15.1775C19.6708 15.5174 19.2098 15.7083 18.7291 15.7083C18.2484 15.7083 17.7874 15.5174 17.4475 15.1775C17.1076 14.8376 16.9166 14.3765 16.9166 13.8958C16.9166 13.4151 17.1076 12.9541 17.4475 12.6142C17.7874 12.2743 18.2484 12.0833 18.7291 12.0833Z" fill="white"/>
</svg>
