<svg width="29" height="30" viewBox="0 0 29 30" fill="none" xmlns="http://www.w3.org/2000/svg">
<path d="M9.6365 22.8125C9.43511 22.2083 9.24903 21.5938 9.07825 20.9688C8.90747 20.3438 8.77133 19.7188 8.66983 19.0938L7.25004 20.0938V23.8125L9.6365 22.8125ZM14.0771 6.09375C13.1105 7.15625 12.3351 8.5575 11.7511 10.2975C11.1671 12.0375 10.875 13.8654 10.875 15.7812C10.875 17.0312 10.9858 18.2554 11.2073 19.4538C11.4289 20.6521 11.7209 21.6675 12.0834 22.5H16.9167C17.2792 21.6667 17.5712 20.6513 17.7928 19.4538C18.0143 18.2563 18.125 17.0321 18.125 15.7812C18.125 13.8646 17.833 12.0367 17.249 10.2975C16.665 8.55833 15.8896 7.15708 14.923 6.09375C14.8625 6.03125 14.7973 5.98458 14.7272 5.95375C14.6571 5.92292 14.5814 5.90708 14.5 5.90625C14.4187 5.90542 14.3434 5.92125 14.2741 5.95375C14.2048 5.98625 14.1392 6.03292 14.0771 6.09375ZM14.5 16.25C13.8355 16.25 13.2667 16.0054 12.7939 15.5163C12.321 15.0271 12.0842 14.4383 12.0834 13.75C12.0826 13.0617 12.3194 12.4733 12.7939 11.985C13.2683 11.4967 13.8371 11.2517 14.5 11.25C15.163 11.2483 15.7321 11.4933 16.2074 11.985C16.6827 12.4767 16.9191 13.065 16.9167 13.75C16.9143 14.435 16.6779 15.0238 16.2074 15.5163C15.737 16.0088 15.1678 16.2533 14.5 16.25ZM19.3636 22.8125L21.75 23.8125V20.0938L20.3303 19.0938C20.2296 19.7188 20.0938 20.3438 19.923 20.9688C19.7523 21.5938 19.5658 22.2083 19.3636 22.8125ZM15.4365 3.25C17.1282 4.75 18.4022 6.59375 19.2585 8.78125C20.1148 10.9688 20.5425 13.4583 20.5417 16.25L23.0792 18C23.4216 18.2292 23.6886 18.5313 23.8803 18.9062C24.0721 19.2812 24.1675 19.6771 24.1667 20.0938V25.6562C24.1667 26.0938 23.9907 26.4375 23.6387 26.6875C23.2866 26.9375 22.9088 26.9792 22.5052 26.8125L18.1552 25H10.8448L6.49483 26.8125C6.09205 26.9792 5.71465 26.9375 5.36262 26.6875C5.0106 26.4375 4.83418 26.0938 4.83337 25.6562V20.0938C4.83337 19.6771 4.92924 19.2812 5.12096 18.9062C5.31268 18.5313 5.57932 18.2292 5.92087 18L8.45837 16.25C8.45837 13.4583 8.88653 10.9688 9.74283 8.78125C10.5991 6.59375 11.8723 4.75 13.5624 3.25C13.7033 3.14583 13.8544 3.0625 14.0155 3C14.1766 2.9375 14.3377 2.90625 14.4988 2.90625C14.6599 2.90625 14.8211 2.9375 14.9822 3C15.1433 3.0625 15.2955 3.14583 15.4365 3.25Z" fill="white"/>
</svg>
