<svg width="29" height="29" viewBox="0 0 29 29" fill="none" xmlns="http://www.w3.org/2000/svg">
<path d="M24.0494 10.3748C23.992 10.2436 23.9118 10.1238 23.8125 10.0207L16.5625 2.77071C16.4595 2.67143 16.3396 2.59124 16.2085 2.53388C16.1723 2.51696 16.1336 2.5073 16.0949 2.494C15.9938 2.45972 15.8885 2.439 15.782 2.43238C15.7566 2.42996 15.7336 2.41667 15.7083 2.41667H7.24992C5.91713 2.41667 4.83325 3.50055 4.83325 4.83334V24.1667C4.83325 25.4995 5.91713 26.5833 7.24992 26.5833H21.7499C23.0827 26.5833 24.1666 25.4995 24.1666 24.1667V10.875C24.1666 10.8496 24.1533 10.8267 24.1509 10.8001C24.1443 10.6935 24.1235 10.5883 24.0893 10.4871C24.078 10.4485 24.0647 10.411 24.0494 10.3748ZM20.0413 9.66667H16.9166V6.54192L20.0413 9.66667ZM7.24992 24.1667V4.83334H14.4999V10.875C14.4999 11.1955 14.6272 11.5028 14.8538 11.7294C15.0804 11.956 15.3878 12.0833 15.7083 12.0833H21.7499L21.7523 24.1667H7.24992Z" fill="white"/>
<path d="M9.66675 14.5H19.3334V16.9167H9.66675V14.5ZM9.66675 19.3333H19.3334V21.75H9.66675V19.3333ZM9.66675 9.66667H12.0834V12.0833H9.66675V9.66667Z" fill="white"/>
</svg>
