<svg width="29" height="29" viewBox="0 0 29 29" fill="none" xmlns="http://www.w3.org/2000/svg">
<path fill-rule="evenodd" clip-rule="evenodd" d="M12.0407 3.3942C11.8 3.21809 11.5199 3.10364 11.2247 3.06088C10.9296 3.01812 10.6285 3.04834 10.3478 3.14891C9.03517 3.63003 7.816 4.33528 6.74453 5.23328C6.51755 5.426 6.34118 5.67133 6.23081 5.94788C6.12045 6.22443 6.07944 6.52378 6.11137 6.81983C6.20199 7.7297 6.04128 8.60816 5.60387 9.36458C5.16766 10.1222 4.48616 10.701 3.65241 11.0768C3.37968 11.1975 3.1407 11.3832 2.95638 11.6176C2.77206 11.8521 2.64802 12.1282 2.59512 12.4217C2.35501 13.7968 2.35501 15.2032 2.59512 16.5783C2.70749 17.2272 3.15095 17.6972 3.65241 17.9244C4.48616 18.299 5.16766 18.879 5.60508 19.6354C6.04128 20.393 6.20199 21.2703 6.11137 22.1802C6.05699 22.7263 6.24066 23.345 6.74453 23.7667C7.816 24.6647 9.03517 25.37 10.3478 25.8511C10.6284 25.9514 10.9292 25.9815 11.2241 25.9388C11.519 25.896 11.7989 25.7817 12.0395 25.6058C12.7826 25.0717 13.6248 24.7708 14.4996 24.7708C15.3745 24.7708 16.2155 25.0717 16.9586 25.6058C17.4057 25.9272 18.034 26.077 18.6515 25.8511C19.9641 25.37 21.1832 24.6647 22.2547 23.7667C22.7586 23.345 22.9435 22.7275 22.8879 22.1802C22.7972 21.2703 22.9567 20.3918 23.3954 19.6354C23.8316 18.8778 24.5131 18.3002 25.3468 17.9244C25.8471 17.6985 26.2917 17.2272 26.4041 16.5783C26.6442 15.2032 26.6442 13.7968 26.4041 12.4217C26.3512 12.1282 26.2272 11.8521 26.0429 11.6176C25.8585 11.3832 25.6196 11.1975 25.3468 11.0768C24.5131 10.701 23.8316 10.1222 23.3942 9.36458C22.9567 8.60816 22.7972 7.7297 22.8879 6.81983C22.9198 6.52378 22.8788 6.22443 22.7684 5.94788C22.6581 5.67133 22.4817 5.426 22.2547 5.23328C21.1832 4.33528 19.9641 3.63003 18.6515 3.14891C18.3709 3.04855 18.07 3.01844 17.7751 3.0612C17.4802 3.10396 17.2003 3.21829 16.9598 3.3942C16.2155 3.92708 15.3732 4.22916 14.4996 4.22916C13.626 4.22916 12.7838 3.92828 12.0407 3.3942ZM10.8746 14.5C10.8746 13.5386 11.2565 12.6165 11.9364 11.9367C12.6162 11.2569 13.5382 10.875 14.4996 10.875C15.461 10.875 16.3831 11.2569 17.0629 11.9367C17.7427 12.6165 18.1246 13.5386 18.1246 14.5C18.1246 15.4614 17.7427 16.3834 17.0629 17.0633C16.3831 17.7431 15.461 18.125 14.4996 18.125C13.5382 18.125 12.6162 17.7431 11.9364 17.0633C11.2565 16.3834 10.8746 15.4614 10.8746 14.5Z" fill="white"/>
</svg>
