<svg width="24" height="24" viewBox="0 0 24 24" fill="none" xmlns="http://www.w3.org/2000/svg">
<path d="M21.6089 13.562L21.8389 11.126C22.0189 9.214 22.1089 8.257 21.7809 7.862C21.6982 7.75935 21.5959 7.67407 21.4801 7.61109C21.3643 7.5481 21.2371 7.50865 21.1059 7.495C20.6299 7.453 20.0329 8.133 18.8379 9.493C18.2199 10.197 17.9109 10.548 17.5669 10.603C17.3748 10.6332 17.1781 10.6016 17.0049 10.513C16.6859 10.353 16.4749 9.918 16.0499 9.049L13.8129 4.465C13.0109 2.822 12.6099 2 11.9999 2C11.3899 2 10.9889 2.822 10.1869 4.465L7.94995 9.049C7.52595 9.919 7.31395 10.353 6.99495 10.513C6.82162 10.601 6.62508 10.6325 6.43295 10.603C6.08895 10.548 5.77995 10.197 5.16195 9.493C3.96695 8.133 3.36995 7.453 2.89395 7.495C2.7628 7.50865 2.63564 7.5481 2.51979 7.61109C2.40395 7.67407 2.30171 7.75935 2.21895 7.862C1.89195 8.257 1.98195 9.214 2.16195 11.126L2.39095 13.562C2.76895 17.574 2.95695 19.581 4.14095 20.79C5.32195 22 7.09395 22 10.6399 22H13.3589C16.9039 22 18.6759 22 19.8589 20.79C21.0419 19.58 21.2309 17.574 21.6089 13.562Z" stroke="white" stroke-width="1.5"/>
<path d="M9 18H15" stroke="white" stroke-width="1.5" stroke-linecap="round"/>
</svg>
