<svg width="100" height="100" viewBox="0 0 100 100" fill="none" xmlns="http://www.w3.org/2000/svg">
<path d="M49.1378 53.2566C53.3045 53.2566 56.8605 51.8493 59.8059 49.0348C62.7513 46.2203 64.224 42.8224 64.224 38.8409C64.224 34.8594 62.7513 31.4614 59.8059 28.6469C56.8605 25.8324 53.3045 24.4252 49.1378 24.4252C44.9712 24.4252 41.4151 25.8324 38.4697 28.6469C35.5243 31.4614 34.0516 34.8594 34.0516 38.8409C34.0516 42.8224 35.5243 46.2203 38.4697 49.0348C41.4151 51.8493 44.9712 53.2566 49.1378 53.2566ZM18.9654 86.2068C16.5947 86.2068 14.566 85.4009 12.8792 83.789C11.1924 82.1772 10.3476 80.2373 10.3447 77.9692V20.3064C10.3447 18.0411 11.1896 16.1025 12.8792 14.4907C14.5689 12.8789 16.5976 12.0716 18.9654 12.0688H79.3102C81.6809 12.0688 83.7111 12.8761 85.4008 14.4907C87.0904 16.1052 87.9338 18.0438 87.9309 20.3064V77.9692C87.9309 80.2345 87.0875 82.1745 85.4008 83.789C83.714 85.4036 81.6838 86.2095 79.3102 86.2068H18.9654ZM18.9654 77.9692H79.3102V73.2326C75.4309 69.5944 70.9237 66.7291 65.7887 64.6367C60.6536 62.5444 55.1033 61.4969 49.1378 61.4941C43.1723 61.4914 37.622 62.5389 32.487 64.6367C27.3519 66.7346 22.8447 69.5999 18.9654 73.2326V77.9692Z" fill="#BEBEBE"/>
</svg>
