<svg width="45" height="43" viewBox="0 0 45 43" fill="none" xmlns="http://www.w3.org/2000/svg">
<path d="M22.5 23.8889C24.9167 23.8889 26.9792 23.0727 28.6875 21.4403C30.3958 19.8079 31.25 17.837 31.25 15.5278C31.25 13.2185 30.3958 11.2477 28.6875 9.61528C26.9792 7.98287 24.9167 7.16667 22.5 7.16667C20.0833 7.16667 18.0208 7.98287 16.3125 9.61528C14.6042 11.2477 13.75 13.2185 13.75 15.5278C13.75 17.837 14.6042 19.8079 16.3125 21.4403C18.0208 23.0727 20.0833 23.8889 22.5 23.8889ZM5 43C3.625 43 2.44833 42.5326 1.47 41.5977C0.491667 40.6629 0.00166667 39.5377 0 38.2222V4.77778C0 3.46389 0.49 2.33952 1.47 1.40467C2.45 0.469815 3.62667 0.00159259 5 0H40C41.375 0 42.5525 0.468222 43.5325 1.40467C44.5125 2.34111 45.0017 3.46548 45 4.77778V38.2222C45 39.5361 44.5108 40.6613 43.5325 41.5977C42.5542 42.5342 41.3767 43.0016 40 43H5ZM5 38.2222H40V35.475C37.75 33.3648 35.1358 31.7029 32.1575 30.4894C29.1792 29.2758 25.96 28.6683 22.5 28.6667C19.04 28.6651 15.8208 29.2726 12.8425 30.4894C9.86417 31.7061 7.25 33.368 5 35.475V38.2222Z" fill="#BEBEBE"/>
</svg>
