<svg width="80" height="80" viewBox="0 0 80 80" fill="none" xmlns="http://www.w3.org/2000/svg">
<path d="M40.0001 4.16666C32.9129 4.16666 25.9849 6.26825 20.0922 10.2057C14.1994 14.1431 9.60655 19.7395 6.89441 26.2872C4.18227 32.8349 3.47265 40.0397 4.85529 46.9907C6.23793 53.9417 9.65072 60.3266 14.6621 65.338C19.6735 70.3494 26.0584 73.7622 33.0094 75.1448C39.9603 76.5274 47.1652 75.8178 53.7129 73.1057C60.2606 70.3935 65.857 65.8007 69.7944 59.9079C73.7318 54.0152 75.8334 47.0872 75.8334 40C75.8228 30.4997 72.0442 21.3915 65.3264 14.6737C58.6086 7.95593 49.5004 4.17724 40.0001 4.16666ZM40.0001 70.8333C33.9018 70.8333 27.9405 69.025 22.87 65.637C17.7995 62.249 13.8475 57.4335 11.5138 51.7994C9.18011 46.1653 8.56951 39.9658 9.75922 33.9847C10.9489 28.0036 13.8855 22.5097 18.1976 18.1975C22.5098 13.8854 28.0037 10.9488 33.9848 9.75911C39.9659 8.5694 46.1654 9.18 51.7995 11.5137C57.4336 13.8474 62.2491 17.7994 65.6371 22.8699C69.0251 27.9404 70.8334 33.9017 70.8334 40C70.8246 48.1748 67.5733 56.0122 61.7928 61.7927C56.0124 67.5732 48.1749 70.8245 40.0001 70.8333ZM40.0001 25.8333C37.1982 25.8333 34.4592 26.6642 32.1295 28.2208C29.7998 29.7775 27.984 31.99 26.9118 34.5786C25.8396 37.1673 25.559 40.0157 26.1056 42.7638C26.6523 45.5118 28.0015 48.0361 29.9828 50.0173C31.964 51.9986 34.4883 53.3478 37.2363 53.8944C39.9844 54.4411 42.8328 54.1605 45.4214 53.0883C48.0101 52.016 50.2226 50.2003 51.7793 47.8706C53.3359 45.5409 54.1668 42.8019 54.1668 40C54.1624 36.2441 52.6684 32.6433 50.0126 29.9875C47.3568 27.3317 43.756 25.8377 40.0001 25.8333ZM40.0001 49.1667C38.1871 49.1667 36.4148 48.629 34.9074 47.6218C33.3999 46.6145 32.225 45.1829 31.5312 43.5079C30.8374 41.8329 30.6559 39.9898 31.0096 38.2117C31.3633 36.4335 32.2363 34.8002 33.5183 33.5182C34.8003 32.2362 36.4336 31.3632 38.2118 31.0095C39.9899 30.6558 41.833 30.8373 43.508 31.5311C45.183 32.2249 46.6147 33.3998 47.6219 34.9073C48.6292 36.4147 49.1668 38.187 49.1668 40C49.165 42.4306 48.1987 44.7612 46.48 46.4799C44.7613 48.1986 42.4307 49.1649 40.0001 49.1667ZM41.7668 38.2333C41.9994 38.465 42.184 38.7403 42.3099 39.0435C42.4358 39.3466 42.5007 39.6717 42.5007 40C42.5007 40.3283 42.4358 40.6533 42.3099 40.9565C42.184 41.2597 41.9994 41.535 41.7668 41.7667C41.5358 41.9929 41.2644 42.1738 40.9668 42.3C40.6616 42.4319 40.3326 42.4999 40.0001 42.4999C39.6676 42.4999 39.3386 42.4319 39.0334 42.3C38.7358 42.1738 38.4644 41.9929 38.2334 41.7667C37.7677 41.2966 37.5064 40.6617 37.5064 40C37.5064 39.3383 37.7677 38.7034 38.2334 38.2333C38.4644 38.0071 38.7358 37.8262 39.0334 37.7C39.3386 37.5681 39.6676 37.5 40.0001 37.5C40.3326 37.5 40.6616 37.5681 40.9668 37.7C41.2644 37.8262 41.5358 38.0071 41.7668 38.2333Z" fill="#FFE980"/>
<path d="M67.5 40C67.4921 47.291 64.5922 54.2811 59.4367 59.4367C54.2811 64.5922 47.291 67.4921 40 67.5C39.337 67.5 38.7011 67.2366 38.2322 66.7678C37.7634 66.2989 37.5 65.663 37.5 65C37.5 64.337 37.7634 63.7011 38.2322 63.2322C38.7011 62.7634 39.337 62.5 40 62.5C45.9652 62.4929 51.6841 60.1201 55.9021 55.9021C60.1201 51.6841 62.4929 45.9652 62.5 40C62.5 39.337 62.7634 38.7011 63.2322 38.2322C63.7011 37.7634 64.337 37.5 65 37.5C65.663 37.5 66.2989 37.7634 66.7678 38.2322C67.2366 38.7011 67.5 39.337 67.5 40ZM42.5 15C42.5 14.337 42.2366 13.7011 41.7678 13.2322C41.2989 12.7634 40.663 12.5 40 12.5C32.709 12.5079 25.7189 15.4078 20.5633 20.5633C15.4078 25.7189 12.5079 32.709 12.5 40C12.5 40.663 12.7634 41.2989 13.2322 41.7678C13.7011 42.2366 14.337 42.5 15 42.5C15.663 42.5 16.2989 42.2366 16.7678 41.7678C17.2366 41.2989 17.5 40.663 17.5 40C17.5071 34.0348 19.8799 28.3159 24.0979 24.0979C28.3159 19.8799 34.0348 17.5071 40 17.5C40.663 17.5 41.2989 17.2366 41.7678 16.7678C42.2366 16.2989 42.5 15.663 42.5 15Z" fill="#87DDFD"/>
</svg>
