<svg width="16" height="16" viewBox="0 0 16 16" fill="none" xmlns="http://www.w3.org/2000/svg">
<path d="M7.99999 9.98333C7.9111 9.98333 7.8251 9.96666 7.74199 9.93333C7.65844 9.9 7.58888 9.85555 7.53332 9.8L4.46666 6.73333C4.34444 6.61111 4.28333 6.45555 4.28333 6.26666C4.28333 6.07778 4.34444 5.92222 4.46666 5.8C4.58888 5.67778 4.74444 5.61666 4.93333 5.61666C5.12221 5.61666 5.27777 5.67778 5.39999 5.8L7.99999 8.4L10.6 5.8C10.7222 5.67778 10.8778 5.61666 11.0667 5.61666C11.2555 5.61666 11.4111 5.67778 11.5333 5.8C11.6555 5.92222 11.7167 6.07778 11.7167 6.26666C11.7167 6.45555 11.6555 6.61111 11.5333 6.73333L8.46666 9.8C8.39999 9.86666 8.32777 9.91378 8.24999 9.94133C8.17221 9.96933 8.08888 9.98333 7.99999 9.98333Z" fill="#F0F0F0"/>
</svg>
