<svg width="24" height="24" viewBox="0 0 24 24" fill="none" xmlns="http://www.w3.org/2000/svg">
<path d="M11.9252 3C12.9377 3.0027 13.4515 3.0081 13.8952 3.0207L14.0698 3.027C14.2714 3.0342 14.4703 3.0432 14.7106 3.054C15.6681 3.099 16.3215 3.25019 16.8948 3.47249C17.4887 3.70108 17.9891 4.01068 18.4895 4.51016C18.9471 4.96006 19.3012 5.50427 19.5271 6.10493C19.7494 6.67821 19.9006 7.3316 19.9456 8.29008C19.9564 8.52947 19.9654 8.72837 19.9726 8.93086L19.978 9.10546C19.9915 9.54825 19.9969 10.0621 19.9987 11.0746L19.9996 11.746V12.925C20.0018 13.5814 19.9949 14.2379 19.9789 14.8941L19.9735 15.0687C19.9663 15.2712 19.9573 15.4701 19.9465 15.7095C19.9015 16.668 19.7485 17.3205 19.5271 17.8947C19.3018 18.4956 18.9477 19.04 18.4895 19.4894C18.0395 19.9469 17.4953 20.301 16.8948 20.5271C16.3215 20.7494 15.6681 20.9006 14.7106 20.9456C14.497 20.9556 14.2834 20.9646 14.0698 20.9726L13.8952 20.978C13.4515 20.9906 12.9377 20.9969 11.9252 20.9987L11.2538 20.9996H10.0758C9.41907 21.0018 8.76234 20.9949 8.10581 20.9789L7.93122 20.9735C7.71758 20.9654 7.50398 20.9561 7.29045 20.9456C6.3329 20.9006 5.67953 20.7494 5.10536 20.5271C4.50479 20.3015 3.96081 19.9474 3.51154 19.4894C3.05351 19.0397 2.69909 18.4954 2.473 17.8947C2.25071 17.3214 2.09951 16.668 2.05452 15.7095C2.04449 15.496 2.03549 15.2824 2.02752 15.0687L2.02302 14.8941C2.00643 14.2379 1.99893 13.5814 2.00052 12.925V11.0746C1.99801 10.4182 2.00461 9.76172 2.02032 9.10546L2.02662 8.93086C2.03382 8.72837 2.04282 8.52947 2.05362 8.29008C2.09861 7.3316 2.24981 6.67911 2.4721 6.10493C2.69809 5.50366 3.05321 4.95928 3.51244 4.51016C3.9616 4.0525 4.50522 3.69837 5.10536 3.47249C5.67953 3.25019 6.332 3.099 7.29045 3.054C7.52984 3.0432 7.72963 3.0342 7.93122 3.027L8.10581 3.0216C8.76205 3.00561 9.41848 2.99871 10.0749 3.0009L11.9252 3ZM11.0001 7.4999C9.80665 7.4999 8.66211 7.97399 7.81824 8.81788C6.97437 9.66178 6.50029 10.8063 6.50029 11.9998C6.50029 13.1932 6.97437 14.3378 7.81824 15.1817C8.66211 16.0256 9.80665 16.4997 11.0001 16.4997C12.1935 16.4997 13.338 16.0256 14.1819 15.1817C15.0257 14.3378 15.4998 13.1932 15.4998 11.9998C15.4998 10.8063 15.0257 9.66178 14.1819 8.81788C13.338 7.97399 12.1935 7.4999 11.0001 7.4999ZM11.0001 9.29985C11.3546 9.29979 11.7057 9.36957 12.0333 9.5052C12.3609 9.64083 12.6585 9.83966 12.9093 10.0903C13.16 10.341 13.3589 10.6386 13.4947 10.9662C13.6304 11.2937 13.7003 11.6448 13.7004 11.9993C13.7004 12.3539 13.6307 12.705 13.495 13.0326C13.3594 13.3602 13.1606 13.6579 12.9099 13.9086C12.6593 14.1594 12.3617 14.3583 12.0341 14.494C11.7066 14.6298 11.3555 14.6997 11.001 14.6997C10.2849 14.6997 9.59819 14.4153 9.09187 13.9089C8.58555 13.4026 8.3011 12.7159 8.3011 11.9998C8.3011 11.2837 8.58555 10.597 9.09187 10.0906C9.59819 9.58431 10.2849 9.29985 11.001 9.29985M15.7257 6.14993C15.4274 6.14993 15.1412 6.26845 14.9303 6.47942C14.7193 6.6904 14.6008 6.97654 14.6008 7.2749C14.6008 7.57326 14.7193 7.8594 14.9303 8.07038C15.1412 8.28135 15.4274 8.39987 15.7257 8.39987C16.0241 8.39987 16.3102 8.28135 16.5212 8.07038C16.7321 7.8594 16.8507 7.57326 16.8507 7.2749C16.8507 6.97654 16.7321 6.6904 16.5212 6.47942C16.3102 6.26845 16.0241 6.14993 15.7257 6.14993Z" fill="#70CCE2"/>
</svg>
