<svg width="26" height="26" viewBox="0 0 26 26" fill="none" xmlns="http://www.w3.org/2000/svg">
<path d="M7.58333 13C7.58333 13.5747 7.35506 14.1258 6.94873 14.5321C6.5424 14.9384 5.9913 15.1667 5.41667 15.1667C4.84203 15.1667 4.29093 14.9384 3.8846 14.5321C3.47827 14.1258 3.25 13.5747 3.25 13C3.25 12.4254 3.47827 11.8743 3.8846 11.468C4.29093 11.0616 4.84203 10.8334 5.41667 10.8334C5.9913 10.8334 6.5424 11.0616 6.94873 11.468C7.35506 11.8743 7.58333 12.4254 7.58333 13ZM15.1667 13C15.1667 13.5747 14.9384 14.1258 14.5321 14.5321C14.1257 14.9384 13.5746 15.1667 13 15.1667C12.4254 15.1667 11.8743 14.9384 11.4679 14.5321C11.0616 14.1258 10.8333 13.5747 10.8333 13C10.8333 12.4254 11.0616 11.8743 11.4679 11.468C11.8743 11.0616 12.4254 10.8334 13 10.8334C13.5746 10.8334 14.1257 11.0616 14.5321 11.468C14.9384 11.8743 15.1667 12.4254 15.1667 13ZM22.75 13C22.75 13.5747 22.5217 14.1258 22.1154 14.5321C21.7091 14.9384 21.158 15.1667 20.5833 15.1667C20.0087 15.1667 19.4576 14.9384 19.0513 14.5321C18.6449 14.1258 18.4167 13.5747 18.4167 13C18.4167 12.4254 18.6449 11.8743 19.0513 11.468C19.4576 11.0616 20.0087 10.8334 20.5833 10.8334C21.158 10.8334 21.7091 11.0616 22.1154 11.468C22.5217 11.8743 22.75 12.4254 22.75 13Z" fill="white"/>
</svg>
