<svg width="29" height="29" viewBox="0 0 29 29" fill="none" xmlns="http://www.w3.org/2000/svg">
<path fill-rule="evenodd" clip-rule="evenodd" d="M16.3123 3.625C19.0363 3.625 21.6488 4.7071 23.5749 6.63326C25.5011 8.55941 26.5832 11.1718 26.5832 13.8958C26.5832 16.6198 25.5011 19.2323 23.5749 21.1584C21.6488 23.0846 19.0363 24.1667 16.3123 24.1667H15.7082V25.3629C15.7082 25.5233 15.6766 25.6821 15.6152 25.8302C15.5538 25.9784 15.4637 26.113 15.3503 26.2263C15.2368 26.3397 15.1022 26.4295 14.9539 26.4908C14.8057 26.552 14.6469 26.5835 14.4865 26.5833C11.514 26.5809 8.50288 25.5889 6.21792 23.5577C3.91242 21.5059 2.41892 18.4573 2.4165 14.5109V13.8958C2.4165 11.1718 3.49861 8.55941 5.42476 6.63326C7.35092 4.7071 9.96334 3.625 12.6873 3.625H16.3123ZM10.2707 12.0833C9.78997 12.0833 9.32895 12.2743 8.98904 12.6142C8.64913 12.9541 8.45817 13.4151 8.45817 13.8958C8.45817 14.3765 8.64913 14.8376 8.98904 15.1775C9.32895 15.5174 9.78997 15.7083 10.2707 15.7083C10.7514 15.7083 11.2124 15.5174 11.5523 15.1775C11.8922 14.8376 12.0832 14.3765 12.0832 13.8958C12.0832 13.4151 11.8922 12.9541 11.5523 12.6142C11.2124 12.2743 10.7514 12.0833 10.2707 12.0833ZM18.729 12.0833C18.2483 12.0833 17.7873 12.2743 17.4474 12.6142C17.1075 12.9541 16.9165 13.4151 16.9165 13.8958C16.9165 14.3765 17.1075 14.8376 17.4474 15.1775C17.7873 15.5174 18.2483 15.7083 18.729 15.7083C19.2097 15.7083 19.6707 15.5174 20.0106 15.1775C20.3505 14.8376 20.5415 14.3765 20.5415 13.8958C20.5415 13.4151 20.3505 12.9541 20.0106 12.6142C19.6707 12.2743 19.2097 12.0833 18.729 12.0833Z" fill="white"/>
</svg>
