<svg width="30" height="30" viewBox="0 0 30 30" fill="none" xmlns="http://www.w3.org/2000/svg">
<path d="M5 27.5V20.0938C5 19.6771 5.09917 19.2812 5.2975 18.9062C5.49583 18.5312 5.77167 18.2292 6.125 18L7.5 17.0938C7.64583 18.8438 7.875 20.3333 8.1875 21.5625C8.5 22.7917 8.98958 24.1562 9.65625 25.6562L5 27.5ZM11.5313 25C10.8021 23.625 10.2604 22.1667 9.90625 20.625C9.55208 19.0833 9.375 17.4896 9.375 15.8438C9.375 13.2396 9.89083 10.7867 10.9225 8.485C11.9542 6.18333 13.3133 4.43833 15 3.25C16.6875 4.4375 18.0471 6.1825 19.0787 8.485C20.1104 10.7875 20.6258 13.2404 20.625 15.8438C20.625 17.4688 20.4479 19.0471 20.0938 20.5787C19.7396 22.1104 19.1979 23.5842 18.4688 25H11.5313ZM15 16.25C15.6875 16.25 16.2762 16.0054 16.7663 15.5162C17.2563 15.0271 17.5008 14.4383 17.5 13.75C17.4992 13.0617 17.2546 12.4733 16.7663 11.985C16.2779 11.4967 15.6892 11.2517 15 11.25C14.3108 11.2483 13.7225 11.4933 13.235 11.985C12.7475 12.4767 12.5025 13.065 12.5 13.75C12.4975 14.435 12.7425 15.0237 13.235 15.5162C13.7275 16.0087 14.3158 16.2533 15 16.25ZM25 27.5L20.3438 25.6562C21.0104 24.1562 21.5 22.7917 21.8125 21.5625C22.125 20.3333 22.3542 18.8438 22.5 17.0938L23.875 18C24.2292 18.2292 24.5054 18.5312 24.7038 18.9062C24.9021 19.2812 25.0008 19.6771 25 20.0938V27.5Z" fill="white"/>
</svg>
