<svg width="29" height="29" viewBox="0 0 29 29" fill="none" xmlns="http://www.w3.org/2000/svg">
<path d="M21.75 26.5833C22.391 26.5833 23.0057 26.3287 23.4589 25.8755C23.9121 25.4223 24.1667 24.8076 24.1667 24.1667V9.66667L16.9167 2.41667H7.25004C6.6091 2.41667 5.99441 2.67128 5.5412 3.1245C5.08799 3.57771 4.83337 4.1924 4.83337 4.83334V24.1667C4.83337 24.8076 5.08799 25.4223 5.5412 25.8755C5.99441 26.3287 6.6091 26.5833 7.25004 26.5833H21.75ZM15.7084 4.83334L21.75 10.875H15.7084V4.83334ZM8.45837 9.66667H12.0834V12.0833H8.45837V9.66667ZM8.45837 14.5H20.5417V16.9167H8.45837V14.5ZM8.45837 19.3333H20.5417V21.75H8.45837V19.3333Z" fill="white"/>
</svg>
