<svg width="24" height="24" viewBox="0 0 24 24" fill="none" xmlns="http://www.w3.org/2000/svg">
<path d="M21.6091 13.562L21.8391 11.126C22.0191 9.214 22.1091 8.257 21.7811 7.862C21.6983 7.75935 21.5961 7.67407 21.4802 7.61109C21.3644 7.5481 21.2372 7.50865 21.1061 7.495C20.6301 7.453 20.0331 8.133 18.8381 9.493C18.2201 10.197 17.9111 10.548 17.5671 10.603C17.3749 10.6332 17.1782 10.6016 17.0051 10.513C16.6861 10.353 16.4751 9.918 16.0501 9.049L13.8131 4.465C13.0111 2.822 12.6101 2 12.0001 2C11.3901 2 10.9891 2.822 10.1871 4.465L7.95007 9.049C7.52607 9.919 7.31407 10.353 6.99507 10.513C6.82174 10.601 6.6252 10.6325 6.43307 10.603C6.08907 10.548 5.78007 10.197 5.16207 9.493C3.96707 8.133 3.37007 7.453 2.89407 7.495C2.76292 7.50865 2.63576 7.5481 2.51992 7.61109C2.40407 7.67407 2.30183 7.75935 2.21907 7.862C1.89207 8.257 1.98207 9.214 2.16207 11.126L2.39107 13.562C2.76907 17.574 2.95707 19.581 4.14107 20.79C5.32207 22 7.09407 22 10.6401 22H13.3591C16.9041 22 18.6761 22 19.8591 20.79C21.0421 19.58 21.2311 17.574 21.6091 13.562Z" stroke="white" stroke-width="1.5"/>
<path d="M9 18H15" stroke="white" stroke-width="1.5" stroke-linecap="round"/>
</svg>
