<svg width="29" height="29" viewBox="0 0 29 29" fill="none" xmlns="http://www.w3.org/2000/svg">
<path d="M4.83337 21.75C4.83337 20.4681 5.3426 19.2388 6.24902 18.3323C7.15545 17.4259 8.38483 16.9167 9.66671 16.9167H19.3334C20.6153 16.9167 21.8446 17.4259 22.7511 18.3323C23.6575 19.2388 24.1667 20.4681 24.1667 21.75C24.1667 22.391 23.9121 23.0056 23.4589 23.4589C23.0057 23.9121 22.391 24.1667 21.75 24.1667H7.25004C6.6091 24.1667 5.99441 23.9121 5.5412 23.4589C5.08799 23.0056 4.83337 22.391 4.83337 21.75Z" stroke="white" stroke-width="1.66667" stroke-linejoin="round"/>
<path d="M14.5 12.0833C16.502 12.0833 18.125 10.4604 18.125 8.45834C18.125 6.45631 16.502 4.83334 14.5 4.83334C12.498 4.83334 10.875 6.45631 10.875 8.45834C10.875 10.4604 12.498 12.0833 14.5 12.0833Z" stroke="white" stroke-width="1.66667"/>
</svg>
