<svg width="29" height="29" viewBox="0 0 29 29" fill="none" xmlns="http://www.w3.org/2000/svg">
<path fill-rule="evenodd" clip-rule="evenodd" d="M16.9589 3.39421C17.406 3.07279 18.0344 2.92296 18.6518 3.14892C19.9644 3.63003 21.1836 4.33529 22.2551 5.23329C22.7589 5.65621 22.9438 6.27367 22.8882 6.81983C22.7976 7.72971 22.9571 8.60817 23.3957 9.36458C23.7824 10.0376 24.3648 10.5693 25.0753 10.9439L25.3472 11.0768C25.8474 11.3027 26.2921 11.7728 26.4045 12.4217C26.6446 13.7968 26.6446 15.2032 26.4045 16.5783C26.3042 17.1632 25.9332 17.6018 25.4946 17.8483L25.3472 17.9244C24.5134 18.299 23.8319 18.879 23.3945 19.6354C22.9571 20.393 22.7976 21.2703 22.8882 22.1802C22.9426 22.7263 22.7589 23.345 22.2551 23.7667C21.1836 24.6647 19.9644 25.37 18.6518 25.8511C18.3713 25.9514 18.0704 25.9816 17.7755 25.9388C17.4806 25.896 17.2007 25.7817 16.9602 25.6058C16.2158 25.0729 15.3736 24.7708 14.5 24.7708C13.6264 24.7708 12.7842 25.0717 12.041 25.6058C11.8004 25.7819 11.5202 25.8963 11.2251 25.9391C10.93 25.9819 10.6289 25.9516 10.3482 25.8511C9.03553 25.37 7.81636 24.6647 6.7449 23.7667C6.51792 23.574 6.34155 23.3287 6.23118 23.0521C6.12081 22.7756 6.07981 22.4762 6.11173 22.1802C6.20236 21.2703 6.04165 20.3918 5.60423 19.6354C5.20658 18.9595 4.62377 18.4115 3.92465 18.0561L3.65278 17.9232C3.38005 17.8025 3.14107 17.6168 2.95674 17.3824C2.77242 17.1479 2.64838 16.8718 2.59548 16.5783C2.35538 15.2032 2.35538 13.7968 2.59548 12.4217C2.69578 11.8368 3.06673 11.3982 3.50536 11.1517L3.65278 11.0768C4.48653 10.701 5.16803 10.1222 5.60544 9.36458C6.04165 8.60817 6.20236 7.72971 6.11173 6.81983C6.07981 6.52379 6.12081 6.22443 6.23118 5.94789C6.34155 5.67134 6.51792 5.426 6.7449 5.23329C7.81636 4.33529 9.03553 3.63003 10.3482 3.14892C10.6287 3.04856 10.9296 3.01845 11.2245 3.0612C11.5194 3.10396 11.7993 3.2183 12.0398 3.39421C12.7829 3.92829 13.6252 4.22917 14.5 4.22917C15.3748 4.22917 16.2158 3.92829 16.9589 3.39421ZM18.1153 5.53175C17.0689 6.2205 15.8352 6.64583 14.5 6.64583C13.1648 6.64583 11.9311 6.21929 10.8847 5.53175C10.0435 5.87144 9.25439 6.32783 8.54048 6.8875C8.61298 8.13571 8.36528 9.41654 7.69828 10.5729C7.03007 11.7281 6.04528 12.5824 4.92757 13.1442C4.8004 14.0428 4.8004 14.9548 4.92757 15.8533C6.04528 16.4152 7.03007 17.2695 7.69828 18.4271C8.36528 19.581 8.61298 20.8619 8.54048 22.1101C9.25432 22.6702 10.0435 23.127 10.8847 23.467C11.9311 22.7783 13.1648 22.353 14.5 22.353C15.8352 22.353 17.0689 22.7795 18.1153 23.467C18.9564 23.1274 19.7456 22.671 20.4595 22.1113C20.387 20.8619 20.6347 19.581 21.3017 18.4259C21.9687 17.2695 22.9547 16.4152 24.0724 15.8521C24.1993 14.9544 24.1993 14.0432 24.0724 13.1455C22.9547 12.5824 21.9699 11.7281 21.3017 10.5717C20.6347 9.41654 20.387 8.13571 20.4595 6.88629C19.7456 6.32662 18.9564 5.87144 18.1153 5.53175ZM14.5 9.66667C15.7819 9.66667 17.0112 10.1759 17.9177 11.0823C18.8241 11.9887 19.3333 13.2181 19.3333 14.5C19.3333 15.7819 18.8241 17.0113 17.9177 17.9177C17.0112 18.8241 15.7819 19.3333 14.5 19.3333C13.2181 19.3333 11.9887 18.8241 11.0823 17.9177C10.1759 17.0113 9.66665 15.7819 9.66665 14.5C9.66665 13.2181 10.1759 11.9887 11.0823 11.0823C11.9887 10.1759 13.2181 9.66667 14.5 9.66667ZM14.5 12.0833C13.859 12.0833 13.2444 12.3379 12.7911 12.7912C12.3379 13.2444 12.0833 13.8591 12.0833 14.5C12.0833 15.1409 12.3379 15.7556 12.7911 16.2088C13.2444 16.6621 13.859 16.9167 14.5 16.9167C15.1409 16.9167 15.7556 16.6621 16.2088 16.2088C16.662 15.7556 16.9167 15.1409 16.9167 14.5C16.9167 13.8591 16.662 13.2444 16.2088 12.7912C15.7556 12.3379 15.1409 12.0833 14.5 12.0833Z" fill="white"/>
</svg>
