<svg width="40" height="40" viewBox="0 0 40 40" fill="none" xmlns="http://www.w3.org/2000/svg">
<g clip-path="url(#clip0_1346_2399)">
<path d="M20 0C8.9543 0 0 8.9543 0 20C0 31.0457 8.9543 40 20 40C31.0457 40 40 31.0457 40 20C40 8.9543 31.0457 0 20 0Z" fill="#70CCE2"/>
<path d="M31.1104 23.67L30.9944 23.7202V23.7767H26.5652C25.102 23.7749 23.9164 22.5892 23.9146 21.1261V18.1556C23.9146 18.0732 23.8984 17.9917 23.8669 17.9155C23.8353 17.8394 23.7891 17.7703 23.7309 17.712C23.6726 17.6537 23.6034 17.6075 23.5273 17.576C23.4512 17.5445 23.3696 17.5283 23.2872 17.5283C23.1208 17.5283 22.9613 17.5944 22.8436 17.712C22.726 17.8297 22.6599 17.9892 22.6599 18.1556V25.4234C22.6599 26.8875 21.4731 28.074 20.0092 28.074C18.5454 28.074 17.3587 26.8874 17.3587 25.4234V14.5766C17.3587 14.4102 17.2926 14.2506 17.175 14.133C17.0573 14.0153 16.8977 13.9492 16.7314 13.9492C16.565 13.9492 16.4054 14.0153 16.2878 14.133C16.1701 14.2506 16.104 14.4102 16.104 14.5766V21.1293C16.1005 22.5912 14.9153 23.7749 13.4534 23.7767H8.99924L8.88635 23.6669V21.8695L8.99924 21.7598H13.4378C13.5201 21.7598 13.6017 21.7436 13.6779 21.712C13.754 21.6805 13.8231 21.6343 13.8814 21.576C13.9397 21.5178 13.9859 21.4486 14.0174 21.3725C14.049 21.2964 14.0652 21.2148 14.0652 21.1324V14.5766C14.0652 13.1127 15.2519 11.926 16.7157 11.926C18.1796 11.926 19.3664 13.1127 19.3664 14.5766V25.4266C19.3664 25.593 19.4324 25.7526 19.5501 25.8702C19.6677 25.9879 19.8273 26.054 19.9937 26.054C20.1601 26.054 20.3196 25.9879 20.4373 25.8702C20.5549 25.7526 20.621 25.593 20.621 25.4266V18.1555C20.621 16.6917 21.8078 15.5051 23.2717 15.5051C24.7356 15.5051 25.9222 16.6917 25.9222 18.1556V21.1293C25.9223 21.2957 25.9884 21.4552 26.106 21.5728C26.2236 21.6905 26.3832 21.7566 26.5496 21.7566H30.9788V21.8069L31.0948 21.8634L31.1104 23.67Z" fill="white"/>
</g>
<defs>
<clipPath id="clip0_1346_2399">
<rect width="40" height="40" fill="white"/>
</clipPath>
</defs>
</svg>
