<svg width="16" height="16" viewBox="0 0 16 16" fill="none" xmlns="http://www.w3.org/2000/svg">
<path fill-rule="evenodd" clip-rule="evenodd" d="M12.8441 6.98924C12.9984 7.10867 13.1233 7.26186 13.2093 7.43704C13.2952 7.61223 13.3399 7.80478 13.3399 7.99991C13.3399 8.19504 13.2952 8.38758 13.2093 8.56277C13.1233 8.73796 12.9984 8.89114 12.8441 9.01058C10.8456 10.5565 8.61422 11.7752 6.23344 12.6212L5.7981 12.7759C4.9661 13.0712 4.08744 12.5086 3.97477 11.6492C3.6601 9.22653 3.6601 6.77329 3.97477 4.35058C4.08744 3.49124 4.9661 2.92858 5.7981 3.22391L6.23344 3.37858C8.61422 4.22462 10.8456 5.44335 12.8441 6.98924ZM12.2321 8.21991C12.2657 8.19393 12.293 8.1606 12.3117 8.12246C12.3304 8.08432 12.3402 8.0424 12.3402 7.99991C12.3402 7.95742 12.3304 7.9155 12.3117 7.87736C12.293 7.83922 12.2657 7.80588 12.2321 7.77991C10.3174 6.29884 8.17968 5.13119 5.89877 4.32058L5.46344 4.16591C5.41 4.14836 5.35333 4.14285 5.29751 4.14977C5.24169 4.15669 5.18809 4.17588 5.14056 4.20595C5.09303 4.23603 5.05274 4.27625 5.02257 4.32373C4.99241 4.3712 4.97313 4.42477 4.9661 4.48058C4.66275 6.81699 4.66275 9.18282 4.9661 11.5192C4.97322 11.575 4.99257 11.6285 5.02276 11.6759C5.05296 11.7233 5.09327 11.7634 5.14079 11.7934C5.18831 11.8234 5.24188 11.8426 5.29766 11.8494C5.35343 11.8563 5.41004 11.8508 5.46344 11.8332L5.89877 11.6792C8.17972 10.8684 10.3174 9.70121 12.2321 8.21991Z" fill="white"/>
</svg>
